<svg width="24" height="24" viewBox="0 0 24 24" fill="none" xmlns="http://www.w3.org/2000/svg">
<mask id="mask0_75880_8832" style="mask-type:alpha" maskUnits="userSpaceOnUse" x="0" y="0" width="25" height="24">
<rect x="0.000976562" width="24" height="24" fill="#D9D9D9"/>
</mask>
<g mask="url(#mask0_75880_8832)">
<path d="M11.001 13H6.00098C5.71764 13 5.48014 12.9042 5.28848 12.7125C5.09681 12.5208 5.00098 12.2833 5.00098 12C5.00098 11.7167 5.09681 11.4792 5.28848 11.2875C5.48014 11.0958 5.71764 11 6.00098 11H11.001V6C11.001 5.71667 11.0968 5.47917 11.2885 5.2875C11.4801 5.09583 11.7176 5 12.001 5C12.2843 5 12.5218 5.09583 12.7135 5.2875C12.9051 5.47917 13.001 5.71667 13.001 6V11H18.001C18.2843 11 18.5218 11.0958 18.7135 11.2875C18.9051 11.4792 19.001 11.7167 19.001 12C19.001 12.2833 18.9051 12.5208 18.7135 12.7125C18.5218 12.9042 18.2843 13 18.001 13H13.001V18C13.001 18.2833 12.9051 18.5208 12.7135 18.7125C12.5218 18.9042 12.2843 19 12.001 19C11.7176 19 11.4801 18.9042 11.2885 18.7125C11.0968 18.5208 11.001 18.2833 11.001 18V13Z" fill="#2A3647"/>
</g>
</svg>
