<svg width="18" height="8" viewBox="0 0 18 8" fill="none" xmlns="http://www.w3.org/2000/svg">
<g clip-path="url(#clip0_150249_7966)">
<path d="M16.5685 7.16664L1.43151 7.16664C1.18446 7.16664 0.947523 7.06779 0.772832 6.89183C0.598141 6.71587 0.5 6.47722 0.5 6.22837C0.5 5.97953 0.598141 5.74087 0.772832 5.56491C0.947523 5.38895 1.18446 5.2901 1.43151 5.2901L16.5685 5.2901C16.8155 5.2901 17.0525 5.38895 17.2272 5.56491C17.4019 5.74087 17.5 5.97953 17.5 6.22837C17.5 6.47722 17.4019 6.71587 17.2272 6.89183C17.0525 7.06779 16.8155 7.16664 16.5685 7.16664Z" fill="#FFA800"/>
<path d="M16.5685 2.70986L1.43151 2.70986C1.18446 2.70986 0.947523 2.611 0.772832 2.43504C0.598141 2.25908 0.5 2.02043 0.5 1.77158C0.5 1.52274 0.598141 1.28409 0.772832 1.10813C0.947523 0.932166 1.18446 0.833313 1.43151 0.833313L16.5685 0.833313C16.8155 0.833313 17.0525 0.932166 17.2272 1.10813C17.4019 1.28409 17.5 1.52274 17.5 1.77158C17.5 2.02043 17.4019 2.25908 17.2272 2.43504C17.0525 2.611 16.8155 2.70986 16.5685 2.70986Z" fill="#FFA800"/>
</g>
<defs>
<clipPath id="clip0_150249_7966">
<rect width="17" height="6.33333" fill="white" transform="translate(0.5 0.833313)"/>
</clipPath>
</defs>
</svg>
