<svg width="18" height="12" viewBox="0 0 18 12" fill="none" xmlns="http://www.w3.org/2000/svg">
<g clip-path="url(#clip0_150249_8481)">
<path d="M9.00026 4.75488C9.19969 4.75455 9.39397 4.81645 9.55451 4.93149L17.123 10.3655C17.2215 10.4362 17.3046 10.5251 17.3678 10.6272C17.4309 10.7292 17.4727 10.8423 17.4909 10.96C17.5276 11.1978 17.4656 11.44 17.3186 11.6334C17.1716 11.8267 16.9516 11.9554 16.7071 11.9911C16.4625 12.0267 16.2134 11.9665 16.0145 11.8236L9.00026 6.79262L1.98602 11.8236C1.88754 11.8943 1.7757 11.9455 1.65687 11.9743C1.53803 12.003 1.41455 12.0087 1.29345 11.9911C1.17235 11.9734 1.05602 11.9327 0.951088 11.8714C0.846159 11.81 0.754691 11.7291 0.681906 11.6334C0.609122 11.5376 0.556445 11.4289 0.526885 11.3134C0.497325 11.1978 0.491459 11.0778 0.509623 10.96C0.527789 10.8423 0.569626 10.7292 0.632752 10.6272C0.695876 10.5251 0.779049 10.4362 0.877524 10.3654L8.44602 4.93149C8.60656 4.81645 8.80083 4.75455 9.00026 4.75488Z" fill="#FF3D00"/>
<path d="M9.00002 8.0474e-07C9.19945 -0.000333441 9.39372 0.0615695 9.55427 0.176604L17.1228 5.61057C17.3216 5.75348 17.454 5.96736 17.4907 6.20514C17.5273 6.44292 17.4654 6.68513 17.3184 6.87849C17.1714 7.07185 16.9514 7.20051 16.7068 7.23618C16.4623 7.27185 16.2131 7.2116 16.0143 7.06868L9.00002 2.03774L1.98577 7.06868C1.78689 7.2116 1.53777 7.27185 1.2932 7.23618C1.04863 7.20051 0.828657 7.07185 0.681662 6.87849C0.534667 6.68513 0.472695 6.44292 0.509379 6.20514C0.546065 5.96736 0.678402 5.75348 0.87728 5.61057L8.44577 0.176604C8.60631 0.0615695 8.80059 -0.000333475 9.00002 8.0474e-07Z" fill="#FF3D00"/>
</g>
<defs>
<clipPath id="clip0_150249_8481">
<rect width="17" height="12" fill="white" transform="translate(17.5 12) rotate(-180)"/>
</clipPath>
</defs>
</svg>
