<svg width="18" height="12" viewBox="0 0 18 12" fill="none" xmlns="http://www.w3.org/2000/svg">
<g clip-path="url(#clip0_150249_7934)">
<path d="M8.99974 7.24512C8.80031 7.24545 8.60603 7.18355 8.44549 7.06851L0.876998 1.63455C0.778524 1.56378 0.695351 1.47485 0.632227 1.37284C0.569103 1.27082 0.527264 1.15771 0.5091 1.03998C0.472414 0.802195 0.534386 0.559983 0.681381 0.366625C0.828377 0.173268 1.04835 0.0446026 1.29292 0.00893536C1.53749 -0.0267319 1.78661 0.0335201 1.98549 0.176437L8.99974 5.20738L16.014 0.176438C16.1125 0.105672 16.2243 0.0544579 16.3431 0.0257179C16.462 -0.00302201 16.5855 -0.00872444 16.7066 0.00893622C16.8277 0.0265969 16.944 0.0672747 17.0489 0.128647C17.1538 0.19002 17.2453 0.270885 17.3181 0.366626C17.3909 0.462367 17.4436 0.571109 17.4731 0.686643C17.5027 0.802177 17.5085 0.92224 17.4904 1.03998C17.4722 1.15772 17.4304 1.27082 17.3672 1.37284C17.3041 1.47486 17.221 1.56379 17.1225 1.63455L9.55398 7.06851C9.39344 7.18355 9.19917 7.24545 8.99974 7.24512Z" fill="#7AE229"/>
<path d="M8.99998 12C8.80055 12.0003 8.60628 11.9384 8.44574 11.8234L0.877242 6.38943C0.678366 6.24652 0.546029 6.03264 0.509344 5.79486C0.472658 5.55708 0.53463 5.31487 0.681625 5.12151C0.828621 4.92815 1.0486 4.79949 1.29317 4.76382C1.53773 4.72815 1.78686 4.7884 1.98574 4.93132L8.99998 9.96226L16.0142 4.93132C16.2131 4.7884 16.4622 4.72815 16.7068 4.76382C16.9514 4.79949 17.1713 4.92815 17.3183 5.12151C17.4653 5.31487 17.5273 5.55708 17.4906 5.79486C17.4539 6.03264 17.3216 6.24652 17.1227 6.38943L9.55423 11.8234C9.39369 11.9384 9.19941 12.0003 8.99998 12Z" fill="#7AE229"/>
</g>
<defs>
<clipPath id="clip0_150249_7934">
<rect width="17" height="12" fill="white" transform="translate(0.5)"/>
</clipPath>
</defs>
</svg>
